#N canvas 516 304 1082 621 10;
#X obj 202 494 dac~;
#X obj -312 14 table 1_1;
#X obj -312 34 table 1_2;
#X obj -311 54 table 1_3;
#X obj -312 75 table 1_4;
#X obj -312 95 table 1_5;
#X obj -312 115 table 1_6;
#X obj -312 136 table 1_7;
#X obj -312 158 table 1_8;
#X obj -312 178 table 1_9;
#X obj -248 14 table 2_1;
#X obj -248 34 table 2_2;
#X obj -248 54 table 2_3;
#X obj -248 75 table 2_4;
#X obj -248 95 table 2_5;
#X obj -248 115 table 2_6;
#X obj -248 135 table 2_7;
#X obj -248 155 table 2_8;
#X obj -248 176 table 2_9;
#X obj -180 12 table 3_1;
#X obj -180 33 table 3_2;
#X obj -180 54 table 3_3;
#X obj -180 76 table 3_4;
#X obj -180 95 table 3_5;
#X obj -180 115 table 3_6;
#X obj -180 135 table 3_7;
#X obj -180 156 table 3_8;
#X obj -180 176 table 3_9;
#X obj -296 231 bng 15 250 50 0 empty empty empty 17 7 0 10 -262144
-1 -1;
#N canvas 367 0 450 992 loadWaves 0;
#X obj 88 613 soundfiler;
#X msg 88 508 symbol wave/\$1.wav;
#X msg 114 292 1 2 3 4 5 6 7 8 9;
#X obj 114 321 iter;
#X msg 88 442 symbol \$1_\$2;
#X obj 114 348 t b f;
#X obj 76 224 iter;
#X msg 76 201 1 2 3;
#X obj 76 253 t b f;
#X obj 88 385 f;
#X obj 88 414 pack f f;
#X msg 88 578 read -resize \$1 \$2;
#X obj 88 542 pack s s;
#X obj 88 471 t s s;
#X obj 76 165 inlet;
#X connect 1 0 12 0;
#X connect 2 0 3 0;
#X connect 3 0 5 0;
#X connect 4 0 13 0;
#X connect 5 0 9 0;
#X connect 5 1 10 1;
#X connect 6 0 8 0;
#X connect 7 0 6 0;
#X connect 8 0 2 0;
#X connect 8 1 9 1;
#X connect 9 0 10 0;
#X connect 10 0 4 0;
#X connect 11 0 0 0;
#X connect 12 0 11 0;
#X connect 13 0 1 0;
#X connect 13 1 12 1;
#X connect 14 0 7 0;
#X restore -296 280 pd loadWaves;
#X obj -271 230 loadbang;
#X obj 203 83 bng 15 250 50 0 empty empty empty 17 7 0 10 -262144 -1
-1;
#X obj 220 215 random 9;
#X msg 220 270 set 1_\$1;
#X obj 220 241 + 1;
#X obj 203 337 tabplay~;
#X obj 296 213 random 9;
#X obj 296 239 + 1;
#X obj 248 379 tabplay~;
#X obj 293 408 tabplay~;
#X obj 378 215 random 9;
#X obj 378 241 + 1;
#X msg 296 268 set 2_\$1;
#X msg 377 270 set 3_\$1;
#X obj 203 140 t b b b b;
#X text 452 271 SET WAVE TABLE NAMES;
#X text 386 363 PLAY WAVE TABLES;
#X text 240 82 HIT PLAY;
#X text 453 214 CREATE RANDOM VALUES;
#X text -195 238 LOAD ALL FILES TO TABLES;
#X text -108 18 TABLES;
#X connect 28 0 29 0;
#X connect 30 0 29 0;
#X connect 31 0 44 0;
#X connect 32 0 34 0;
#X connect 33 0 35 0;
#X connect 34 0 33 0;
#X connect 35 0 0 0;
#X connect 35 0 0 1;
#X connect 35 1 38 0;
#X connect 36 0 37 0;
#X connect 37 0 42 0;
#X connect 38 0 0 0;
#X connect 38 0 0 1;
#X connect 38 1 39 0;
#X connect 39 0 0 0;
#X connect 39 0 0 1;
#X connect 40 0 41 0;
#X connect 41 0 43 0;
#X connect 42 0 38 0;
#X connect 43 0 39 0;
#X connect 44 0 35 0;
#X connect 44 1 32 0;
#X connect 44 2 36 0;
#X connect 44 3 40 0;
