#N canvas 303 27 931 625 10;
#X obj 87 12 vradio 15 1 0 9 empty empty empty 0 -8 0 10 -262144 -1
-1 2;
#X text 108 11 U;
#X text 108 25 O;
#X text 107 40 a;
#X text 107 57 A;
#X text 107 72 Ö;
#X text 109 104 Ä;
#X text 108 118 E;
#X text 108 87 Ü;
#X text 108 132 I;
#X obj 87 241 zl nth;
#X obj 87 212 list 320 500 700 1000 500 320 700 500 320;
#X obj 87 182 t b i;
#X obj 87 157 + 1;
#X obj 351 241 zl nth;
#X obj 351 182 t b i;
#X obj 233 580 dac~;
#X obj 235 537 *~;
#X obj 351 211 list 800 1000 1150 1400 1500 1650 1800 2300 3200;
#X floatatom 87 271 5 0 0 0 - - -;
#X floatatom 399 241 5 0 0 0 - - -;
#X floatatom 393 299 5 0 0 0 - - -;
#X obj 58 431 bp~ 0 100;
#X obj 58 367 square~ 50;
#X obj 368 373 square~ 50;
#X obj 403 24 hsl 128 15 0 127 0 0 empty empty empty -2 -8 0 10 -262144
-1 -1 0 1;
#X obj 400 51 / 127;
#X obj 400 101 + 50;
#X obj 400 76 * 500;
#X obj 400 139 send oscFreq;
#X obj 58 339 receive oscFreq;
#X obj 368 349 receive oscFreq;
#X obj 650 26 hsl 128 15 0 127 0 0 empty empty empty -2 -8 0 10 -262144
-1 -1 11000 1;
#X obj 647 53 / 127;
#X obj 647 108 * 0;
#X obj 647 141 send QValue;
#X obj 419 404 receive QValue;
#X obj 109 407 receive QValue;
#X obj 648 78 * 10;
#X obj 368 431 bp~ 0 100;
#X text 382 4 Oszillator Frequenz (50 - 550);
#X text 646 3 Filter Q (0 - 100 \, exp);
#X text 497 71 Frequenz: 50 \, Q: ~20;
#X text 123 430 Bandpass Formant 1;
#X text 438 430 Bandpass Formant 2;
#N canvas 713 326 450 300 Hüllkurve 1;
#X obj 19 123 line~;
#X obj 19 26 t b;
#X msg 19 91 0 200;
#X obj 19 62 delay 800;
#X msg 82 63 1 200;
#X obj 19 -17 inlet;
#X obj 19 156 outlet~;
#X connect 0 0 6 0;
#X connect 1 0 4 0;
#X connect 1 0 3 0;
#X connect 2 0 0 0;
#X connect 3 0 2 0;
#X connect 4 0 0 0;
#X connect 5 0 1 0;
#X restore 351 476 pd Hüllkurve;
#N canvas 452 253 450 300 Rauschgenerator 0;
#X obj 45 94 noise~;
#X obj 89 155 line~;
#X obj 73 183 *~;
#X obj 89 76 t b;
#X obj 89 44 inlet;
#X obj 74 215 outlet~;
#X msg 152 103 1 50;
#X msg 89 127 0 120;
#X obj 89 102 delay 50;
#X connect 0 0 2 0;
#X connect 1 0 2 1;
#X connect 2 0 5 0;
#X connect 3 0 6 0;
#X connect 3 0 8 0;
#X connect 4 0 3 0;
#X connect 6 0 1 0;
#X connect 7 0 1 0;
#X connect 8 0 7 0;
#X restore 179 350 pd Rauschgenerator;
#X text 195 238 Listen-Element nehmen;
#X connect 0 0 13 0;
#X connect 10 0 19 0;
#X connect 10 0 46 0;
#X connect 11 0 10 0;
#X connect 12 0 11 0;
#X connect 12 1 10 1;
#X connect 13 0 12 0;
#X connect 13 0 15 0;
#X connect 14 0 21 0;
#X connect 14 0 45 0;
#X connect 15 0 18 0;
#X connect 15 1 14 1;
#X connect 17 0 16 0;
#X connect 17 0 16 1;
#X connect 18 0 14 0;
#X connect 19 0 22 1;
#X connect 21 0 39 1;
#X connect 22 0 17 0;
#X connect 23 0 22 0;
#X connect 24 0 39 0;
#X connect 25 0 26 0;
#X connect 26 0 28 0;
#X connect 27 0 29 0;
#X connect 28 0 27 0;
#X connect 30 0 23 0;
#X connect 31 0 24 0;
#X connect 32 0 33 0;
#X connect 33 0 38 0;
#X connect 34 0 35 0;
#X connect 36 0 39 2;
#X connect 37 0 22 2;
#X connect 38 0 34 1;
#X connect 38 0 34 0;
#X connect 39 0 17 0;
#X connect 45 0 17 1;
#X connect 46 0 22 0;
#X connect 46 0 39 0;
