#N canvas 496 56 1088 716 10;
#X msg 39 126 Brigitte Thomas Anton Nadine J체rgen Stefanie Katrin
Max Michael;
#X msg 393 126 isst geht schl채ft denkt raucht trinkt f채hrt redet
lacht;
#X obj 374 21 bng 15 250 50 0 empty empty empty 17 7 0 10 -262144 -1
-1;
#X obj 76 238 nbx 5 14 -1e+037 1e+037 0 0 empty empty empty 0 -8 0
10 -262144 -1 -1 2 256;
#X obj 76 201 random 9;
#X obj 66 307 zl nth;
#X obj 365 501 print;
#X obj 374 51 t b b b;
#X msg 365 442 \$1 \$2 \$3.;
#X obj 365 414 pack s s s;
#X obj 420 341 prepend symbol;
#X msg 415 501 Anton f채hrt .;
#X obj 415 471 prepend set;
#X text 304 501 Ausgabe;
#X text 39 101 Namen;
#X text 745 100 Adjektive;
#X text 403 100 Verben;
#X obj 773 341 prepend symbol;
#X obj 430 237 nbx 5 14 -1e+037 1e+037 0 0 empty empty empty 0 -8 0
10 -262144 -1 -1 4 256;
#X obj 430 200 random 9;
#X obj 420 306 zl nth;
#X obj 783 237 nbx 5 14 -1e+037 1e+037 0 0 empty empty empty 0 -8 0
10 -262144 -1 -1 1 256;
#X obj 783 200 random 9;
#X obj 773 306 zl nth;
#X msg 746 125 schnell vorsichtig andauernd nie selten lange ununterbrochen
langsam ruhig;
#X obj 783 270 trigger bang float;
#X obj 430 270 trigger bang float;
#X obj 76 271 trigger bang float;
#X obj 39 167 t b a;
#X obj 393 167 t b a;
#X obj 746 167 t b a;
#X connect 0 0 28 0;
#X connect 1 0 29 0;
#X connect 2 0 7 0;
#X connect 3 0 27 0;
#X connect 4 0 3 0;
#X connect 5 0 9 0;
#X connect 7 0 0 0;
#X connect 7 1 1 0;
#X connect 7 2 24 0;
#X connect 8 0 12 0;
#X connect 8 0 6 0;
#X connect 9 0 8 0;
#X connect 10 0 9 1;
#X connect 12 0 11 0;
#X connect 17 0 9 2;
#X connect 18 0 26 0;
#X connect 19 0 18 0;
#X connect 20 0 10 0;
#X connect 21 0 25 0;
#X connect 22 0 21 0;
#X connect 23 0 17 0;
#X connect 24 0 30 0;
#X connect 25 0 23 0;
#X connect 25 1 23 1;
#X connect 26 0 20 0;
#X connect 27 0 5 0;
#X connect 28 0 4 0;
#X connect 28 1 5 0;
#X connect 29 0 19 0;
#X connect 30 0 22 0;
